<svg width="17" height="16" viewBox="0 0 17 16" fill="none" xmlns="http://www.w3.org/2000/svg">
<path d="M9.16673 1.71867C8.7542 1.48049 8.24593 1.48049 7.8334 1.71867L3.39323 4.2822C2.98069 4.52038 2.72656 4.96055 2.72656 5.4369V10.564C2.72656 11.0403 2.98069 11.4805 3.39323 11.7187L7.8334 14.2822C8.24593 14.5204 8.7542 14.5204 9.16673 14.2822L13.6069 11.7187C14.0194 11.4805 14.2736 11.0403 14.2736 10.564V5.43691C14.2736 4.96055 14.0194 4.52038 13.6069 4.2822L9.16673 1.71867ZM8.50007 2.87337L12.2948 5.06424L8.50011 7.2326L4.70542 5.06421L8.50007 2.87337ZM4.0599 10.564V6.23101L7.83341 8.3873V12.7426L4.0599 10.564ZM9.16675 12.7426V8.38734L12.9402 6.23106V10.564L9.16675 12.7426Z" fill="#202241"/>
</svg>
