<svg width="32" height="32" viewBox="0 0 32 32" fill="none" xmlns="http://www.w3.org/2000/svg">
<path d="M5.62928 15.0574L8.45771 12.2289L10.3433 14.1146L7.5149 16.943C5.4321 19.0258 5.4321 22.4027 7.5149 24.4855C9.59769 26.5683 12.9746 26.5683 15.0574 24.4855L17.8858 21.657L19.7714 23.5426L16.943 26.3711C13.8188 29.4953 8.75347 29.4953 5.62928 26.3711C2.50508 23.2469 2.50508 18.1816 5.62928 15.0574Z" fill="#1E76F0"/>
<path d="M24.4855 15.0574L21.657 17.8858L23.5427 19.7714L26.3711 16.943C29.4953 13.8188 29.4953 8.75347 26.3711 5.62928C23.2469 2.50508 18.1816 2.50508 15.0574 5.62928L12.2289 8.45771L14.1146 10.3433L16.943 7.5149C19.0258 5.4321 22.4027 5.4321 24.4855 7.5149C26.5683 9.59769 26.5683 12.9746 24.4855 15.0574Z" fill="#1E76F0"/>
<path d="M18.8286 11.2861L11.2861 18.8286L13.1718 20.7142L20.7142 13.1718L18.8286 11.2861Z" fill="#1E76F0"/>
</svg>
